<svg xmlns="http://www.w3.org/2000/svg" width="50" height="50" viewBox="0 0 50 50" role="img" aria-labelledby="title">
  <title id="title">Chef avatar in professional uniform</title>
  <circle cx="25" cy="25" r="25" fill="#C0C0C0"/>
  <path d="M13 43v-8q0-11 12-12 12 1 12 12v8z" fill="#ECE9E2"/><path d="M25 26v17" stroke="#B0AAA0" stroke-width="1"/><circle cx="22" cy="31" r=".8" fill="#747474"/><circle cx="28" cy="31" r=".8" fill="#747474"/><circle cx="22" cy="36" r=".8" fill="#747474"/><circle cx="28" cy="36" r=".8" fill="#747474"/>
  <circle cx="25" cy="16" r="9" fill="#808080"/>
  <path d="M17 10q-2-3 1-5 2-2 4 0 1-4 5-3 3 0 3 3 3-2 5 1 2 3-2 5v2H17z" fill="#F4F2ED" stroke="#BDB9B0" stroke-width=".7"/>
  <circle cx="22" cy="15" r="1" fill="#4F4F4F"/><circle cx="28" cy="15" r="1" fill="#4F4F4F"/><path d="M22 20q3 1.5 6 0" fill="none" stroke="#4F4F4F" stroke-width=".8"/>
  <path d="M17 27q8 4 16 0" fill="none" stroke="#B0AAA0" stroke-width="1"/>
</svg>
