<svg xmlns="http://www.w3.org/2000/svg" width="50" height="50" viewBox="0 0 50 50" role="img" aria-labelledby="title">
  <title id="title">Avatar in fancy glasses</title>
  <circle cx="25" cy="25" r="25" fill="#C0C0C0"/>
  <circle cx="25" cy="15" r="10" fill="#808080"/>
  <path d="M17 12c2-7 12-6 16 0-4-6-12-6-16 1z" fill="#606060"/>
  <path d="M17.8 12.5l7 .7-1 4.6h-3.2q-2.2-.3-2.8-5.3zm14.4 0-7 .7 1 4.6h3.2q2.2-.3 2.8-5.3z" fill="#6F4B8B" stroke="#D4AF37" stroke-width="1" stroke-linejoin="round"/>
  <path d="M24.7 14.1h.6" stroke="#D4AF37" stroke-width="1.2"/>
  <path d="M22 19q3 2.4 6 0" fill="none" stroke="#4F4F4F" stroke-width="1" stroke-linecap="round"/>
  <path d="M14 35c0-6 6-12 11-12s11 6 11 12v8H14z" fill="#808080"/>
  <path d="M14 43s6-8 11-8 11 8 11 8z" fill="#606060"/>
  <circle cx="25" cy="31" r="1.5" fill="#D4AF37"/>
</svg>
