<svg xmlns="http://www.w3.org/2000/svg" width="50" height="50" viewBox="0 0 50 50" role="img" aria-labelledby="title">
  <title id="title">Scientist avatar in a lab coat</title>
  <circle cx="25" cy="25" r="25" fill="#C0C0C0"/>
  <path d="M12 43v-8q0-11 13-12 13 1 13 12v8z" fill="#E7EBEE"/><path d="M19 24l6 10 6-10-3 19h-6z" fill="#70869A"/>
  <circle cx="25" cy="15" r="10" fill="#808080"/><path d="M17 11l2-5 3 3 3-5 3 5 3-3 2 5q-8-4-16 0z" fill="#606060"/>
  <rect x="18" y="12" width="6.4" height="5" rx="1" fill="#9FD5E8" fill-opacity=".5" stroke="#3F5864" stroke-width="1"/><rect x="25.6" y="12" width="6.4" height="5" rx="1" fill="#9FD5E8" fill-opacity=".5" stroke="#3F5864" stroke-width="1"/><path d="M24.4 14h1.2" stroke="#3F5864"/><path d="M22 20q3 2 6 0" fill="none" stroke="#4F4F4F" stroke-width=".8"/>
  <circle cx="32" cy="35" r="4" fill="none" stroke="#6A8AB0" stroke-width=".7"/><path d="M28 35h8m-4-4v8m-3-6 6 4m0-4-6 4" stroke="#6A8AB0" stroke-width=".45"/>
</svg>
