<svg xmlns="http://www.w3.org/2000/svg" width="50" height="50" viewBox="0 0 50 50" role="img" aria-labelledby="title">
  <title id="title">Shy avatar looking down and touching index fingers</title>
  <circle cx="25" cy="25" r="25" fill="#C0C0C0"/>
  <circle cx="25" cy="15" r="10" fill="#808080"/>
  <path d="M17 12c2-7 12-6 16 0-4-6-12-6-16 1z" fill="#606060"/>
  <path d="M20 14.5q2 1.7 4 0M26 14.5q2 1.7 4 0" fill="none" stroke="#4F4F4F" stroke-width="1" stroke-linecap="round"/>
  <circle cx="19.3" cy="17.5" r="2" fill="#D98A9B" fill-opacity=".45"/><circle cx="30.7" cy="17.5" r="2" fill="#D98A9B" fill-opacity=".45"/>
  <path d="M23 19.5q2-1.1 4 0" fill="none" stroke="#4F4F4F" stroke-width=".8" stroke-linecap="round"/>
  <path d="M14 35q0-11 11-12 11 1 11 12v8H14z" fill="#808080"/><path d="M14 43q6-8 11-8t11 8z" fill="#606060"/>
  <path d="M16 29.5q.5 6 7 10.3m11-10.3q-.5 6-7 10.3" fill="none" stroke="#606060" stroke-width="4" stroke-linecap="round"/>
  <ellipse cx="23.2" cy="40" rx="2.2" ry="1.8" fill="#929292" stroke="#666" stroke-width=".45"/>
  <ellipse cx="26.8" cy="40" rx="2.2" ry="1.8" fill="#929292" stroke="#666" stroke-width=".45"/>
  <path d="M23.5 40.2l1.2 1m1.8-1-1.2 1" stroke="#707070" stroke-width=".65" stroke-linecap="round"/>
</svg>
