<svg xmlns="http://www.w3.org/2000/svg" width="50" height="50" viewBox="0 0 50 50" role="img" aria-labelledby="title">
  <title id="title">Sick avatar in a blue face mask</title>
  <circle cx="25" cy="25" r="25" fill="#C0C0C0"/>
  <circle cx="25" cy="15" r="10" fill="#808080"/>
  <path d="M17 12c2-7 12-6 16 0-4-6-12-6-16 1z" fill="#606060"/>
  <path d="M19.5 14.5q2.5-1.5 5 0M25.5 14.5q2.5-1.5 5 0" fill="none" stroke="#4F4F4F" stroke-width="1" stroke-linecap="round"/>
  <path d="M18.5 16l6.5 2 6.5-2v5q-6.5 4-13 0z" fill="#77BDE0" stroke="#4C92B8" stroke-width=".8"/>
  <path d="M20 18.3h10M20 20.2h10" stroke="#B9E1F4" stroke-width=".6"/><path d="M18.5 17l-2-1m15 1 2-1" stroke="#4C92B8" stroke-width=".7"/>
  <path d="M14 35q0-11 11-12 11 1 11 12v8H14z" fill="#808080"/><path d="M14 43q6-8 11-8t11 8z" fill="#606060"/>
</svg>
