<svg xmlns="http://www.w3.org/2000/svg" width="50" height="50" viewBox="0 0 50 50" role="img" aria-labelledby="title">
  <title id="title">Woman avatar in a purple dress</title>
  <circle cx="25" cy="25" r="25" fill="#C0C0C0"/>
  <path d="M15 43q1-15 10-19 9 4 10 19z" fill="#76529B"/><path d="M20 25q5 6 10 0l2 18H18z" fill="#8E69B2"/><path d="M18 38q7-4 14 0" fill="none" stroke="#BDA7D5" stroke-width="1"/>
  <path d="M14.8 18q0-14 10.2-14T35.2 18l-2 8H16.8z" fill="#55575C"/><circle cx="25" cy="15" r="9" fill="#858585"/><path d="M17 12q2-8 8-7 6-1 8 7-5-4-8-4t-8 4z" fill="#55575C"/>
  <circle cx="22" cy="14" r="1" fill="#4F4F4F"/><circle cx="28" cy="14" r="1" fill="#4F4F4F"/><path d="M22 19q3 2 6 0" fill="none" stroke="#4F4F4F" stroke-width=".8"/><circle cx="25" cy="29" r="1.3" fill="#D4AF37"/>
</svg>
