<svg xmlns="http://www.w3.org/2000/svg" width="50" height="50" viewBox="0 0 50 50" role="img" aria-labelledby="title">
  <title id="title">Woman doctor avatar in a white coat</title>
  <circle cx="25" cy="25" r="25" fill="#C0C0C0"/>
  <path d="M12 43v-8q0-11 13-12 13 1 13 12v8z" fill="#E8ECEF"/><path d="M19 24l6 10 6-10-3 19h-6z" fill="#95649D"/><path d="M17 26v8q0 4 4 4t4-4v-8m-8 0q4 3 8 0" fill="none" stroke="#55616C" stroke-width=".9"/><circle cx="21" cy="38" r="1.4" fill="none" stroke="#55616C" stroke-width=".8"/>
  <path d="M14.8 18q0-14 10.2-14T35.2 18l-2 8H16.8z" fill="#55575C"/><circle cx="25" cy="15" r="9" fill="#858585"/><path d="M17 12q2-8 8-7 6-1 8 7-5-4-8-4t-8 4z" fill="#55575C"/>
  <circle cx="22" cy="14" r="1" fill="#4F4F4F"/><circle cx="28" cy="14" r="1" fill="#4F4F4F"/><path d="M22 19q3 1.5 6 0" fill="none" stroke="#4F4F4F" stroke-width=".8"/>
</svg>
